<?xml version="1.0" encoding="utf-8"?>
<svg id="Layer_1" data-name="Layer 1" viewBox="0 0 272.94 266.85" xmlns="http://www.w3.org/2000/svg">
  <title>image (5)</title>
  <g id="Layer_2" data-name="Layer 2" transform="matrix(10.349037, 0, 0, 10.796556, 2.93274, 8.62631)" style="">
    <g id="Layer_1-2" data-name="Layer 1">
      <path class="cls-1" d="M15.73,17H9.88A9.89,9.89,0,0,1,0,7.12V3.05A3.06,3.06,0,0,1,3.05,0H22.57a3.06,3.06,0,0,1,3.05,3.05V7.12A9.9,9.9,0,0,1,15.73,17ZM3.05,2.36a.7.7,0,0,0-.69.69V7.12a7.54,7.54,0,0,0,7.52,7.52h5.85a7.53,7.53,0,0,0,7.52-7.52V3.05a.7.7,0,0,0-.68-.69Z" style="fill: rgb(255, 255, 255);"/>
      <path class="cls-1" d="M17.81,23H7.8a1.55,1.55,0,0,1-1.54-1.55v-.77A1.54,1.54,0,0,1,7.8,19.17h10a1.54,1.54,0,0,1,1.54,1.54v.77A1.55,1.55,0,0,1,17.81,23Zm0-2.32-10,0,0,.73,9.94,0Z" style="fill: rgb(255, 255, 255);"/>
    </g>
  </g>
</svg>