<?xml version="1.0" encoding="utf-8"?>
<svg viewBox="0 0 100 100" fill="#FFFFFF" xmlns="http://www.w3.org/2000/svg">
  <g id="Layer_2" data-name="Layer 2" transform="matrix(2.653284, 0, 0, 2.653284, 5.774812, 2.476128)" style="">
    <g id="Layer_1-2" data-name="Layer 1">
      <path class="cls-1" d="M29.9.05,13.65,3.26a2.54,2.54,0,0,0-2,2.48V25.82a9.23,9.23,0,0,0-5.23-.53C2.41,26-.42,28.76.05,31.5s4.08,4.41,8.06,3.72,6.68-3.35,6.35-6v-21L30.08,5.13V21.62a9.27,9.27,0,0,0-5.27-.55c-4,.69-6.81,3.47-6.34,6.21s4.08,4.41,8.06,3.73c3.77-.66,6.51-3.2,6.38-5.8,0,0,0-.07,0-.11V2.53A2.53,2.53,0,0,0,29.9.05Z" style="fill: rgb(255, 255, 255);"/>
    </g>
  </g>
</svg>