<?xml version="1.0" encoding="utf-8"?>
<svg viewBox="0 0 100 100" fill="#FFFFFF" xmlns="http://www.w3.org/2000/svg">
  <g id="Layer_2" data-name="Layer 2" transform="matrix(3.346931, 0, 0, 3.346931, 0.410622, 2.34883)" style="">
    <g id="Layer_1-2" data-name="Layer 1">
      <path class="cls-1" d="M23.41,27.36c-2.27-1.05-4.3-1.82-6.14-2.91a4.55,4.55,0,0,0-5.06,0c-1.86,1.06-3.87,1.85-6.08,2.88.25-2.13.43-4,.7-5.88.51-3.52.53-3.52-2-6.14L.74,10.93c2.82-.54,5.42-1.08,8-1.53a2.47,2.47,0,0,0,2-1.4c1.23-2.37,2.56-4.69,4-7.23.8,1.43,1.51,2.73,2.25,4,.83,1.45,1.37,3.31,2.6,4.21s3.12.77,4.73,1.09l4.45.84a39.35,39.35,0,0,1-3.45,3.65c-2.5,2-3.54,4.35-2.59,7.58A33.92,33.92,0,0,1,23.41,27.36Zm-3-4.14c-.23-1.84-.41-3.47-.66-5.08a1.88,1.88,0,0,1,.56-1.82c1.18-1.17,2.29-2.42,3.56-3.77-1.78-.35-3.36-.73-5-1a2.07,2.07,0,0,1-1.71-1.26c-.74-1.45-1.57-2.85-2.43-4.39-.9,1.63-1.69,3.16-2.59,4.61a2.44,2.44,0,0,1-1.35,1c-1.64.4-3.32.68-5.16,1C6.88,13.83,7.89,15,9,16.07a2.42,2.42,0,0,1,.74,2.45c-.26,1.48-.39,3-.6,4.68,1.65-.76,3.15-1.39,4.59-2.14a2,2,0,0,1,2.11,0C17.27,21.81,18.74,22.44,20.42,23.22Z" style="fill: rgb(255, 255, 255); stroke: rgb(255, 255, 255); stroke-miterlimit: 10; stroke-width: 0.75px;"/>
    </g>
  </g>
</svg>