<?xml version="1.0" encoding="utf-8"?>
<svg height="300px" width="300px" fill="#ffffff" viewBox="0 0 60 58" version="1.1" x="0px" y="0px" xmlns="http://www.w3.org/2000/svg">
  <title>home</title>
  <desc>Created with Sketch.</desc>
  <g transform="matrix(0.111507, 0, 0, 0.111507, 1.197503, 0.364147)" style="">
    <path d="M 498.699 222.695 C 498.684 222.684 498.672 222.668 498.66 222.656 L 289.805 13.809 C 280.902 4.902 269.066 0 256.477 0 C 243.887 0 232.051 4.902 223.145 13.809 L 14.398 222.551 C 14.328 222.621 14.254 222.695 14.188 222.766 C -4.094 241.152 -4.062 270.984 14.277 289.324 C 22.656 297.707 33.719 302.559 45.551 303.07 C 46.035 303.117 46.52 303.141 47.008 303.141 L 55.328 303.141 L 55.328 456.836 C 55.328 487.254 80.078 512 110.496 512 L 192.207 512 C 200.492 512 207.207 505.281 207.207 497 L 207.207 376.5 C 207.207 362.621 218.5 351.332 232.379 351.332 L 280.574 351.332 C 294.453 351.332 305.742 362.621 305.742 376.5 L 305.742 497 C 305.742 505.281 312.457 512 320.742 512 L 402.453 512 C 432.875 512 457.621 487.254 457.621 456.836 L 457.621 303.141 L 465.34 303.141 C 477.926 303.141 489.762 298.238 498.672 289.328 C 517.031 270.961 517.039 241.074 498.699 222.695 Z M 203.457 348.801 C 203.457 340.515 311.313 333.326 311.313 341.612 L 335.742 482 L 335.742 376.5 C 335.742 346.082 310.996 321.332 280.574 321.332 L 232.379 321.332 C 201.957 321.332 177.207 346.082 177.207 376.5 L 177.207 482 L 203.457 348.801 Z" data-original="#000000" class="active-path" data-old_color="#000000" style="fill: rgb(220, 34, 14); paint-order: fill;"/>
  </g>
</svg>