<?xml version="1.0" encoding="utf-8"?>
<svg viewBox="0 0 100 100" fill="#FFFFFF" xmlns="http://www.w3.org/2000/svg">
  <g id="Layer_2" data-name="Layer 2" transform="matrix(2.981535, 0, 0, 2.981535, 6.94009, 13.411431)" style="">
    <g id="Layer_1-2" data-name="Layer 1">
      <path class="cls-1" d="M4.06,2.44a2,2,0,1,0-2,2A2,2,0,0,0,4.06,2.44ZM2,2a.42.42,0,0,1,0,.84A.42.42,0,0,1,2,2Z" style="fill: rgb(255, 255, 255);"/>
      <path class="cls-1" d="M26.74,0H10.31a2.44,2.44,0,0,0,0,4.88H26.74a2.44,2.44,0,1,0,0-4.88Z" style="fill: rgb(255, 255, 255);"/>
      <path class="cls-1" d="M4.06,12.18a2,2,0,1,0-2,2A2,2,0,0,0,4.06,12.18Zm-2-.41a.41.41,0,0,1,.41.41A.41.41,0,0,1,2,12.6a.42.42,0,0,1-.42-.42A.41.41,0,0,1,2,11.77Z" style="fill: rgb(255, 255, 255);"/>
      <path class="cls-1" d="M26.74,9.74H10.31a2.44,2.44,0,0,0,0,4.88H26.74a2.44,2.44,0,1,0,0-4.88Z" style="fill: rgb(255, 255, 255);"/>
      <path class="cls-1" d="M4.06,21.8a2,2,0,1,0-2,2A2,2,0,0,0,4.06,21.8Zm-2-.42a.42.42,0,0,1,0,.84.42.42,0,1,1,0-.84Z" style="fill: rgb(255, 255, 255);"/>
      <path class="cls-1" d="M26.74,19.36H10.31a2.44,2.44,0,0,0,0,4.88H26.74a2.44,2.44,0,1,0,0-4.88Z" style="fill: rgb(255, 255, 255);"/>
    </g>
  </g>
</svg>