<?xml version="1.0" encoding="utf-8"?>
<svg viewBox="0 0 100 100" fill="#FFFFFF" xmlns="http://www.w3.org/2000/svg">
  <g id="Layer_2" data-name="Layer 2" transform="matrix(2.164122, 0, 0, 2.164122, 5.135555, 3.299757)" style="">
    <g id="Layer_1-2" data-name="Layer 1">
      <path class="cls-1" d="M20.89,24.4A12.2,12.2,0,1,0,8.7,12.2,12.21,12.21,0,0,0,20.89,24.4ZM12.58,12.2a8.32,8.32,0,1,1,8.31,8.32A8.32,8.32,0,0,1,12.58,12.2Z" style="fill: rgb(255, 255, 255);"/>
      <path class="cls-1" d="M20.89,24.79A22,22,0,0,0,.1,39.64,1.94,1.94,0,0,0,2.79,42a1.88,1.88,0,0,0,1-1.11,18.11,18.11,0,0,1,34.25,0,2,2,0,0,0,2.46,1.21,1.94,1.94,0,0,0,1.21-2.46A22,22,0,0,0,20.89,24.79Z" style="fill: rgb(255, 255, 255);"/>
    </g>
  </g>
</svg>