<?xml version="1.0" encoding="utf-8"?>
<svg viewBox="0 0 32 32" fill="#ffffff" xmlns="http://www.w3.org/2000/svg">
  <g transform="matrix(0.06694, 0, 0, 0.06694, 0.358668, 0.381306)" style="">
    <g>
      <path style="fill: rgb(220, 34, 14);" d="M74.667,256c-17.673,0-32,14.327-32,32v149.333c0,17.673,14.327,32,32,32s32-14.327,32-32V288   C106.667,270.327,92.34,256,74.667,256z" data-original="#2196F3" class="active-path" data-old_color="#2196F3"/>
      <path style="fill: rgb(220, 34, 14);" d="M394.667,256c-17.673,0-32,14.327-32,32v149.333c0,17.673,14.327,32,32,32s32-14.327,32-32V288   C426.667,270.327,412.34,256,394.667,256z" data-original="#2196F3" class="active-path" data-old_color="#2196F3"/>
    </g>
    <path style="paint-order: stroke; stroke-miterlimit: 22; stroke-width: 91.0564px; stroke-dashoffset: 23px; fill: rgb(220, 34, 14);" d="M458.667,362.667c-5.891,0-10.667-4.776-10.667-10.667V234.667  c0-117.821-95.513-213.333-213.333-213.333S21.333,116.846,21.333,234.667V352c0,5.891-4.776,10.667-10.667,10.667S0,357.891,0,352  V234.667C0,105.064,105.064,0,234.667,0s234.667,105.064,234.667,234.667V352C469.333,357.891,464.558,362.667,458.667,362.667z" data-original="#455A64" class="" data-old_color="#455A64"/>
  </g>
</svg>