<?xml version="1.0" encoding="utf-8"?>
<svg viewBox="0 0 100 100" fill="#FFFFFF" xmlns="http://www.w3.org/2000/svg">
  <g id="Layer_2" data-name="Layer 2" transform="matrix(5.838087, 0, 0, 5.838087, 36.169632, 3.114185)" style="">
    <g id="Layer_1-2" data-name="Layer 1">
      <path class="cls-1" d="M2.31,5.64A2.31,2.31,0,1,0,4.62,8,2.32,2.32,0,0,0,2.31,5.64ZM1.83,8a.48.48,0,0,1,.48-.47A.47.47,0,0,1,2.78,8a.48.48,0,0,1-.47.48A.49.49,0,0,1,1.83,8Z" style=""/>
      <path class="cls-1" d="M0,13.6a2.31,2.31,0,1,0,2.31-2.31A2.32,2.32,0,0,0,0,13.6Zm2.31-.48a.48.48,0,0,1,0,1,.48.48,0,1,1,0-1Z" style=""/>
      <path class="cls-1" d="M4.62,2.31A2.31,2.31,0,1,0,2.31,4.62,2.32,2.32,0,0,0,4.62,2.31Zm-2.31.47a.48.48,0,0,1-.48-.47.49.49,0,0,1,.48-.48.48.48,0,0,1,.47.48A.47.47,0,0,1,2.31,2.78Z" style=""/>
    </g>
  </g>
</svg>